<svg enable-background="new 0 0 578 578" viewBox="0 0 578 578" xmlns="http://www.w3.org/2000/svg"><circle cx="289" cy="288.3" fill="#050a30" r="289"/><g fill="#fff"><path d="m230.65 252.77h33.34v-108.36c0-4.62 3.73-8.34 8.33-8.34h33.34c4.59 0 8.33 3.72 8.33 8.34v108.36h33.34c3.27 0 6.24 1.91 7.58 4.89 1.36 2.98.83 6.48-1.32 8.93l-58.35 66.69c-.25.29-.52.56-.81.81-3.46 3.01-8.71 2.64-11.72-.81l-58.35-66.69c-1.34-1.52-2.06-3.46-2.06-5.48.02-4.6 3.75-8.34 8.35-8.34z"/><path d="m414.03 386.14v.02c0 9.2-7.47 16.65-16.67 16.64h-216.72c-9.2 0-16.67-7.45-16.67-16.66v-66.69h33.34v50.01h183.38v-50.01h33.35v66.69z"/></g></svg>