<svg viewBox="0 0 51.72 51.72" xmlns="http://www.w3.org/2000/svg"><circle cx="25.86" cy="25.86" fill="#fff" opacity=".98" r="25.86"/><path d="m36.39 15.33a14.76 14.76 0 0 0 -10.53-4.33 14.9 14.9 0 1 0 10.53 4.37zm1 16.89h-4.39a19.35 19.35 0 0 0 1-5.49h5a13.28 13.28 0 0 1 -1.62 5.49zm-11.5 6.66a12.37 12.37 0 0 1 -4.54-4.88h9a12.28 12.28 0 0 1 -4.5 4.92zm-5.3-6.66a17.88 17.88 0 0 1 -1.12-5.49h12.8a17.88 17.88 0 0 1 -1.12 5.49zm-7.82-5.49h5a20.08 20.08 0 0 0 1 5.49h-4.42a13.12 13.12 0 0 1 -1.61-5.49zm1.61-7.23h4.36a20 20 0 0 0 -1 5.48h-5a13.08 13.08 0 0 1 1.61-5.48zm11.51-6.66a12.25 12.25 0 0 1 4.5 4.91h-9a12.35 12.35 0 0 1 4.51-4.91zm5.29 6.66a17.75 17.75 0 0 1 1.09 5.5h-12.83a17.75 17.75 0 0 1 1.12-5.48zm7.82 5.5h-5a19.28 19.28 0 0 0 -1-5.48h4.36a13.24 13.24 0 0 1 1.64 5.48zm-6.7-7.25a15.59 15.59 0 0 0 -3.25-4.65 13.18 13.18 0 0 1 7.15 4.65zm-9.63-4.65a15.44 15.44 0 0 0 -3.26 4.65h-3.9a13.2 13.2 0 0 1 7.16-4.65zm-3.26 20.9a15.31 15.31 0 0 0 3.26 4.65 13.15 13.15 0 0 1 -7.16-4.65zm9.64 4.65a15.46 15.46 0 0 0 3.25-4.65h3.9a13.12 13.12 0 0 1 -7.15 4.65z" fill="#050a30"/></svg>