<svg viewBox="0 0 52.94 52.94" xmlns="http://www.w3.org/2000/svg"><circle cx="26.47" cy="26.47" fill="#fff" opacity=".98" r="26.47"/><g fill="#050a30"><path d="m36.8 41h-6.95a1 1 0 0 1 -1-1v-4.9a2.39 2.39 0 0 0 -4.78 0v4.9a1 1 0 0 1 -1 1h-6.93a1 1 0 0 1 -1-1v-13.64h-3.66a1 1 0 0 1 -.71-1.69l15-15.31a1 1 0 0 1 1.42 0l7.48 7.64 7.5 7.65a1 1 0 0 1 -.71 1.69h-3.67v13.66a1 1 0 0 1 -.99 1zm-6-2h5v-13.63a1 1 0 0 1 1-1h2.3l-12.63-12.9-12.63 12.91h2.3a1 1 0 0 1 1 1v13.62h5v-3.93a4.38 4.38 0 0 1 8.75 0z"/><path d="m16.58 21.15a1 1 0 0 1 -.38-.07 1 1 0 0 1 -.61-.92v-7.91a1 1 0 0 1 1-1h2.94a1 1 0 0 1 1 1v4.89a1 1 0 0 1 -.28.7l-2.94 3a1 1 0 0 1 -.73.31zm1-7.91v4.48l.95-1v-3.5z"/></g></svg>