<svg viewBox="0 0 52.8 52.8" xmlns="http://www.w3.org/2000/svg"><path d="m26.4 0a26.4 26.4 0 1 1 -26.4 26.4" fill="#fff" opacity=".98"/><path d="m0 26.4a26.4 26.4 0 0 1 26.4-26.4" fill="#fff" opacity=".98"/><g fill="#050a30"><path d="m41.31 37.45h-29.83a1 1 0 0 1 -1-1v-20.12a1 1 0 0 1 1-1h29.83a1 1 0 0 1 1 1v20.13a1 1 0 0 1 -1 .99zm-28.84-2h27.85v-18.13h-27.85z"/><path d="m26.4 29.5a4.4 4.4 0 0 1 -2.92-1.12l-12.66-11.31a1 1 0 0 1 .66-1.73h29.83a1 1 0 0 1 .93.64 1 1 0 0 1 -.24 1.09l-12.69 11.31a4.37 4.37 0 0 1 -2.91 1.12zm-12.33-12.18 10.73 9.59a2.4 2.4 0 0 0 3.19 0l10.73-9.59z"/><path d="m41.31 37.31h-29.83a1 1 0 0 1 -.92-.63 1 1 0 0 1 .26-1.09l11.11-9.93a1 1 0 0 1 1.4.08 1 1 0 0 1 -.08 1.39l-9.18 8.21h24.65l-9.18-8.21a1 1 0 0 1 1.32-1.47l11.14 9.93a1 1 0 0 1 -.66 1.72z"/></g></svg>